<svg version="1.1" id="Layer_1" xmlns="http://www.w3.org/2000/svg" xmlns:xlink="http://www.w3.org/1999/xlink" x="0px" y="0px"
	 width="100%" viewBox="0 0 512 512" enable-background="new 0 0 512 512" xml:space="preserve">
<path fill="#F9BB69" opacity="1.000000" stroke="none" 
	d="
M254.000000,513.000000 
	C234.645767,513.000000 215.291550,513.000000 195.804092,512.663940 
	C194.834625,511.887817 194.044846,511.232849 193.155090,511.040588 
	C182.243774,508.683105 171.219528,506.776123 160.417145,504.002380 
	C140.991745,499.014435 123.024361,490.473724 106.008118,479.974701 
	C91.370308,470.943207 78.022919,460.225952 66.169662,447.874695 
	C78.426521,435.534424 90.332329,423.309326 102.393761,411.239746 
	C104.187813,409.444489 106.714745,408.381622 109.205856,407.137695 
	C110.847862,408.538239 112.226761,409.740845 113.519035,411.030243 
	C124.000916,421.489197 134.476013,431.955017 144.928528,442.443298 
	C146.814804,444.336029 148.558731,446.014465 151.159546,443.368378 
	C156.524078,437.910461 162.089203,432.641907 167.261368,427.010315 
	C168.123260,426.071869 168.170807,422.963470 167.324295,422.092590 
	C155.729126,410.163513 143.897751,398.464294 132.159454,386.673737 
	C130.166367,384.671814 128.480835,384.964020 126.642799,386.864014 
	C120.748077,392.957611 114.803810,399.003265 108.548218,404.993103 
	C105.281387,402.248413 102.245705,399.678436 99.426338,396.889740 
	C89.034531,386.610962 78.714363,376.259766 68.002136,365.571533 
	C74.660477,358.900421 80.879524,352.470062 87.415024,346.379211 
	C88.212990,345.635529 91.259369,346.101074 92.323669,347.055054 
	C96.901909,351.158752 101.133369,355.649780 105.483559,360.007324 
	C113.341644,367.878662 121.194321,375.755402 129.314117,383.895386 
	C130.846054,382.486298 132.079269,381.428040 133.227005,380.284027 
	C140.888000,372.647705 148.496185,364.957886 156.211761,357.377258 
	C157.583267,356.029755 159.376556,355.111481 161.269699,354.154724 
	C163.019196,355.682098 164.511749,357.012115 165.923370,358.423065 
	C195.860291,388.345245 225.786804,418.277832 255.719070,448.204712 
	C260.489441,452.974243 260.502625,452.970825 265.118713,448.370941 
	C269.132111,444.371704 273.136230,440.363190 277.138275,436.352600 
	C281.978241,431.502289 281.982208,431.492645 277.087860,426.597809 
	C247.042130,396.548767 216.989517,366.506622 186.956375,336.445007 
	C185.552307,335.039612 184.312241,333.470367 183.054993,331.640320 
	C191.300903,322.818695 199.485962,314.332550 207.675751,305.850983 
	C209.354462,304.112488 211.051071,302.391235 213.440140,299.944366 
	C210.076355,296.943726 207.095535,294.533234 204.397141,291.839783 
	C171.041946,258.545776 137.769394,225.168716 104.335045,191.954498 
	C101.213448,188.853439 100.994019,187.004074 104.328232,184.041656 
	C109.050644,179.845779 113.582069,175.374222 117.737862,170.620743 
	C121.003593,166.885330 123.050285,167.386368 126.368896,170.727493 
	C160.871353,205.464142 195.535294,240.040405 230.160828,274.654755 
	C231.527695,276.021179 232.958984,277.323151 234.776138,279.050446 
	C237.791870,275.924927 240.341415,273.080750 243.102570,270.459534 
	C250.690201,263.256409 258.366608,256.146851 266.345947,249.056900 
	C268.459442,250.585144 270.365845,251.925552 271.990967,253.547791 
	C301.948029,283.451599 331.932220,313.328888 361.720520,343.400177 
	C365.209503,346.922302 367.245361,346.846588 370.362701,343.260834 
	C374.071014,338.995209 378.310425,335.192017 382.310425,331.179138 
	C386.975922,326.498596 386.981079,326.484711 382.275024,321.777740 
	C352.111969,291.608551 321.934937,261.453308 291.806427,231.249649 
	C290.324310,229.763824 289.253082,227.868149 288.144257,225.859360 
	C296.938660,216.804901 305.425903,207.894470 314.297546,199.384811 
	C317.713715,196.108002 317.963287,194.160568 314.399017,190.743973 
	C303.359192,180.161591 292.639160,169.242584 281.938629,158.313629 
	C280.829407,157.180740 279.698425,154.183395 280.236176,153.611908 
	C286.442780,147.016037 292.969696,140.721527 299.530884,134.228806 
	C312.648895,147.309677 325.358398,159.967468 338.024750,172.668304 
	C338.561707,173.206726 338.698151,174.144608 338.863403,175.200256 
	C332.252411,182.132492 325.799194,188.760895 319.149536,195.591110 
	C332.020935,208.479797 344.457977,220.991241 357.029602,233.366013 
	C357.718933,234.044571 360.092285,234.174393 360.729248,233.564636 
	C367.173859,227.395187 373.419830,221.018265 380.328705,214.090744 
	C375.970123,209.997238 371.987061,206.467468 368.244110,202.699188 
	C359.096375,193.489532 350.059631,184.169601 341.040100,174.556671 
	C343.811279,170.910889 346.269409,167.351913 349.275208,164.339417 
	C359.803253,153.788010 370.520142,143.425018 381.486145,133.052856 
	C385.391907,136.756424 389.131561,140.259125 392.535675,144.062164 
	C409.223541,162.705780 421.916687,183.839340 431.147949,207.047485 
	C439.363678,227.702484 444.325470,249.074539 446.187256,271.307465 
	C447.638824,288.641846 447.254578,305.834045 444.692841,322.932617 
	C440.540283,350.648987 431.572021,376.787811 417.466949,401.093079 
	C415.562286,404.375153 413.851227,407.769592 411.911072,411.430359 
	C400.473633,428.261017 388.064301,443.723541 372.799561,456.909454 
	C359.929688,468.026672 346.347748,477.965088 331.467468,486.124054 
	C307.828247,499.085541 282.733276,507.695526 255.910263,511.079559 
	C255.203979,511.168671 254.633698,512.335693 254.000000,513.000000 
M325.000000,369.500000 
	C296.278137,340.778809 267.504395,312.109070 238.902771,283.268616 
	C235.485840,279.823151 233.272141,279.730438 230.081223,283.319061 
	C226.105957,287.789825 221.838989,292.040253 217.377258,296.026886 
	C213.863708,299.166321 213.616470,301.448151 217.224411,304.850311 
	C225.335449,312.498718 233.067947,320.548615 240.954453,328.435120 
	C267.909882,355.390564 294.929565,382.282410 321.741394,409.379944 
	C325.194122,412.869446 327.223969,412.827820 330.370239,409.265350 
	C334.549652,404.533142 339.096313,400.093475 343.769653,395.840759 
	C346.759979,393.119568 347.091522,391.234467 343.926575,388.293854 
	C337.589355,382.405762 331.620789,376.121002 325.000000,369.500000 
z"/>
<path fill="#F6D76F" opacity="1.000000" stroke="none" 
	d="
M381.165344,132.990479 
	C370.520142,143.425018 359.803253,153.788010 349.275208,164.339417 
	C346.269409,167.351913 343.811279,170.910889 340.714172,174.566864 
	C339.891266,174.908432 339.456207,174.902420 339.021179,174.896408 
	C338.698151,174.144608 338.561707,173.206726 338.024750,172.668304 
	C325.358398,159.967468 312.648895,147.309677 299.530884,134.228806 
	C292.969696,140.721527 286.442780,147.016037 280.236176,153.611908 
	C279.698425,154.183395 280.829407,157.180740 281.938629,158.313629 
	C292.639160,169.242584 303.359192,180.161591 314.399017,190.743973 
	C317.963287,194.160568 317.713715,196.108002 314.297546,199.384811 
	C305.425903,207.894470 296.938660,216.804901 287.815674,225.838272 
	C286.894653,226.113739 286.455963,226.106354 285.860413,225.795364 
	C273.646759,213.340530 261.630890,201.147797 249.445267,189.127121 
	C248.590393,188.283798 245.794861,187.979675 245.061188,188.665359 
	C238.652161,194.655380 232.507462,200.928223 227.094971,206.310928 
	C240.327438,220.148575 253.166275,233.574570 266.005493,247.333862 
	C266.006561,248.111511 266.007233,248.555893 266.007904,249.000259 
	C258.366608,256.146851 250.690201,263.256409 243.102570,270.459534 
	C240.341415,273.080750 237.791870,275.924927 234.776138,279.050446 
	C232.958984,277.323151 231.527695,276.021179 230.160828,274.654755 
	C195.535294,240.040405 160.871353,205.464142 126.368896,170.727493 
	C123.050285,167.386368 121.003593,166.885330 117.737862,170.620743 
	C113.582069,175.374222 109.050644,179.845779 104.328232,184.041656 
	C100.994019,187.004074 101.213448,188.853439 104.335045,191.954498 
	C137.769394,225.168716 171.041946,258.545776 204.397141,291.839783 
	C207.095535,294.533234 210.076355,296.943726 213.440140,299.944366 
	C211.051071,302.391235 209.354462,304.112488 207.675751,305.850983 
	C199.485962,314.332550 191.300903,322.818695 182.723251,331.639557 
	C181.889862,331.973206 181.447418,331.970490 180.946701,331.632019 
	C180.354492,330.468048 179.948853,329.511688 179.268158,328.830048 
	C148.086151,297.602905 116.862244,266.417664 85.710381,235.160553 
	C83.177437,232.619049 81.366867,232.977936 79.078812,235.371262 
	C74.591980,240.064499 70.107224,244.789536 65.271973,249.110138 
	C61.628681,252.365631 61.925335,254.571594 65.311516,257.932861 
	C95.685410,288.083252 125.892242,318.401886 156.194748,348.624390 
	C157.555099,349.981171 159.363007,350.889191 160.963562,352.337769 
	C160.968155,353.111206 160.971634,353.553101 160.975098,353.994995 
	C159.376556,355.111481 157.583267,356.029755 156.211761,357.377258 
	C148.496185,364.957886 140.888000,372.647705 133.227005,380.284027 
	C132.079269,381.428040 130.846054,382.486298 129.314117,383.895386 
	C121.194321,375.755402 113.341644,367.878662 105.483559,360.007324 
	C101.133369,355.649780 96.901909,351.158752 92.323669,347.055054 
	C91.259369,346.101074 88.212990,345.635529 87.415024,346.379211 
	C80.879524,352.470062 74.660477,358.900421 68.002136,365.571533 
	C78.714363,376.259766 89.034531,386.610962 99.426338,396.889740 
	C102.245705,399.678436 105.281387,402.248413 108.563599,405.311157 
	C108.907158,406.128998 108.904892,406.554474 108.902618,406.979950 
	C106.714745,408.381622 104.187813,409.444489 102.393761,411.239746 
	C90.332329,423.309326 78.426521,435.534424 65.860870,447.746307 
	C63.115170,445.304565 61.112633,442.693756 58.820389,440.368530 
	C46.147259,427.513245 36.128521,412.670746 27.585678,396.943268 
	C14.843323,373.484406 6.307250,348.496643 2.921134,321.879639 
	C2.832497,321.182892 1.664594,320.623444 1.000003,320.000000 
	C1.000000,300.312439 1.000000,280.624878 1.336167,260.804688 
	C2.112572,259.837158 2.764274,259.049133 2.961082,258.160370 
	C5.576640,246.348785 7.613482,234.381348 10.818888,222.734665 
	C15.423355,206.004578 22.675209,190.247406 31.968006,175.628799 
	C38.904854,164.716370 46.437454,154.084686 54.665726,144.121613 
	C61.450729,135.906113 69.262245,128.413879 77.322647,121.411217 
	C85.389870,114.402626 94.329918,108.398697 103.241928,101.909348 
	C113.898239,96.491219 124.026375,90.747894 134.536621,85.819435 
	C159.065613,74.317360 185.193298,68.618393 212.069427,67.242928 
	C225.753738,66.542587 239.639954,67.596092 253.301727,69.081619 
	C286.613342,72.703789 317.325500,84.272881 345.146393,102.734573 
	C357.809631,111.137794 369.160278,121.518967 381.101929,131.334503 
	C381.120117,132.107513 381.142731,132.548996 381.165344,132.990479 
M210.985275,177.493423 
	C214.514587,173.964432 217.967484,170.354095 221.602493,166.937576 
	C223.711182,164.955643 224.068741,163.455215 221.795166,161.220230 
	C211.355179,150.957352 201.002625,140.603912 190.734833,130.168701 
	C188.236862,127.629982 186.409607,127.935860 184.104309,130.341385 
	C179.385880,135.264954 174.599670,140.135864 169.619644,144.791275 
	C167.046799,147.196411 167.139832,148.818970 169.634369,151.247482 
	C178.693207,160.066483 187.541809,169.100998 196.508148,178.015564 
	C204.299530,185.761963 202.607590,185.775406 210.985275,177.493423 
z"/>
<path fill="#000000" opacity="1.000000" stroke="none" 
	d="
M254.468658,513.000000 
	C254.633698,512.335693 255.203979,511.168671 255.910263,511.079559 
	C282.733276,507.695526 307.828247,499.085541 331.467468,486.124054 
	C346.347748,477.965088 359.929688,468.026672 372.799561,456.909454 
	C388.064301,443.723541 400.473633,428.261017 412.267120,411.376282 
	C417.596558,407.440033 422.382294,403.808502 427.273499,400.325073 
	C442.006500,389.832611 454.449249,376.933014 465.520599,362.799164 
	C477.955353,346.924713 488.249817,329.688324 496.044098,310.992554 
	C503.373077,293.412994 508.497742,275.276550 511.073486,256.403809 
	C511.192566,255.531128 512.334473,254.798065 513.000000,254.000000 
	C513.000000,340.260376 513.000000,426.520752 513.000000,513.000000 
	C426.979218,513.000000 340.958282,513.000000 254.468658,513.000000 
z"/>
<path fill="#000000" opacity="1.000000" stroke="none" 
	d="
M102.887383,101.954399 
	C94.329918,108.398697 85.389870,114.402626 77.322647,121.411217 
	C69.262245,128.413879 61.450729,135.906113 54.665726,144.121613 
	C46.437454,154.084686 38.904854,164.716370 31.968006,175.628799 
	C22.675209,190.247406 15.423355,206.004578 10.818888,222.734665 
	C7.613482,234.381348 5.576640,246.348785 2.961082,258.160370 
	C2.764274,259.049133 2.112572,259.837158 1.336167,260.335999 
	C1.000000,173.739639 1.000000,87.479271 1.000000,1.000000 
	C87.020767,1.000000 173.041733,1.000000 259.870972,1.332290 
	C259.847046,2.107061 259.060059,2.784724 258.175507,2.954681 
	C251.333252,4.269339 244.424713,5.271194 237.625671,6.772714 
	C216.635040,11.408354 197.023361,19.572943 178.372116,30.195431 
	C162.721771,39.108810 148.378723,49.808117 135.429108,62.246098 
	C128.197540,69.191948 121.553574,76.805351 115.143440,84.531624 
	C110.623962,89.979042 106.942818,96.121986 102.887383,101.954399 
z"/>
<path fill="#F9BB69" opacity="1.000000" stroke="none" 
	d="
M103.241928,101.909348 
	C106.942818,96.121986 110.623962,89.979042 115.143440,84.531624 
	C121.553574,76.805351 128.197540,69.191948 135.429108,62.246098 
	C148.378723,49.808117 162.721771,39.108810 178.372116,30.195431 
	C197.023361,19.572943 216.635040,11.408354 237.625671,6.772714 
	C244.424713,5.271194 251.333252,4.269339 258.175507,2.954681 
	C259.060059,2.784724 259.847046,2.107061 260.339600,1.332290 
	C279.687561,1.000000 299.375122,1.000000 319.201599,1.333662 
	C320.174042,2.109067 320.960449,2.762702 321.848328,2.960239 
	C332.417023,5.311648 343.092926,7.242312 353.560822,9.972902 
	C372.945343,15.029427 390.903137,23.508837 407.915649,34.003502 
	C422.551605,43.032120 435.876465,53.735401 447.881104,66.175125 
	C427.475037,86.801270 407.261993,107.157387 386.945557,127.409790 
	C385.370422,128.979950 383.069763,129.822327 381.106323,131.002960 
	C369.160278,121.518967 357.809631,111.137794 345.146393,102.734573 
	C317.325500,84.272881 286.613342,72.703789 253.301727,69.081619 
	C239.639954,67.596092 225.753738,66.542587 212.069427,67.242928 
	C185.193298,68.618393 159.065613,74.317360 134.536621,85.819435 
	C124.026375,90.747894 113.898239,96.491219 103.241928,101.909348 
z"/>
<path fill="#FC9F63" opacity="1.000000" stroke="none" 
	d="
M381.101929,131.334503 
	C383.069763,129.822327 385.370422,128.979950 386.945557,127.409790 
	C407.261993,107.157387 427.475037,86.801270 448.192078,66.315498 
	C450.692413,68.518776 452.590912,70.998947 454.757507,73.217316 
	C468.054199,86.831718 478.651611,102.426544 487.493439,119.141472 
	C499.602722,142.033463 507.749756,166.314514 511.080750,192.108627 
	C511.171356,192.809998 512.336121,193.372665 513.000000,194.000000 
	C513.000000,213.687561 513.000000,233.375122 513.000000,253.531342 
	C512.334473,254.798065 511.192566,255.531128 511.073486,256.403809 
	C508.497742,275.276550 503.373077,293.412994 496.044098,310.992554 
	C488.249817,329.688324 477.955353,346.924713 465.520599,362.799164 
	C454.449249,376.933014 442.006500,389.832611 427.273499,400.325073 
	C422.382294,403.808502 417.596558,407.440033 412.406525,411.057953 
	C413.851227,407.769592 415.562286,404.375153 417.466949,401.093079 
	C431.572021,376.787811 440.540283,350.648987 444.692841,322.932617 
	C447.254578,305.834045 447.638824,288.641846 446.187256,271.307465 
	C444.325470,249.074539 439.363678,227.702484 431.147949,207.047485 
	C421.916687,183.839340 409.223541,162.705780 392.535675,144.062164 
	C389.131561,140.259125 385.391907,136.756424 381.486145,133.052872 
	C381.142731,132.548996 381.120117,132.107513 381.101929,131.334503 
z"/>
<path fill="#000000" opacity="1.000000" stroke="none" 
	d="
M513.000000,193.531342 
	C512.336121,193.372665 511.171356,192.809998 511.080750,192.108627 
	C507.749756,166.314514 499.602722,142.033463 487.493439,119.141472 
	C478.651611,102.426544 468.054199,86.831718 454.757507,73.217316 
	C452.590912,70.998947 450.692413,68.518776 448.358978,66.019234 
	C435.876465,53.735401 422.551605,43.032120 407.915649,34.003502 
	C390.903137,23.508837 372.945343,15.029427 353.560822,9.972902 
	C343.092926,7.242312 332.417023,5.311648 321.848328,2.960239 
	C320.960449,2.762702 320.174042,2.109067 319.670258,1.333662 
	C384.260345,1.000000 448.520721,1.000000 513.000000,1.000000 
	C513.000000,65.020729 513.000000,129.041702 513.000000,193.531342 
z"/>
<path fill="#000000" opacity="1.000000" stroke="none" 
	d="
M1.000003,320.468658 
	C1.664594,320.623444 2.832497,321.182892 2.921134,321.879639 
	C6.307250,348.496643 14.843323,373.484406 27.585678,396.943268 
	C36.128521,412.670746 46.147259,427.513245 58.820389,440.368530 
	C61.112633,442.693756 63.115170,445.304565 65.560242,447.911896 
	C78.022919,460.225952 91.370308,470.943207 106.008118,479.974701 
	C123.024361,490.473724 140.991745,499.014435 160.417145,504.002380 
	C171.219528,506.776123 182.243774,508.683105 193.155090,511.040588 
	C194.044846,511.232849 194.834625,511.887817 195.335434,512.663940 
	C130.406509,513.000000 65.813004,513.000000 1.000000,513.000000 
	C1.000000,448.979279 1.000000,384.958282 1.000003,320.468658 
z"/>
<path fill="#FC9F63" opacity="1.000000" stroke="none" 
	d="
M325.250000,369.750000 
	C331.620789,376.121002 337.589355,382.405762 343.926575,388.293854 
	C347.091522,391.234467 346.759979,393.119568 343.769653,395.840759 
	C339.096313,400.093475 334.549652,404.533142 330.370239,409.265350 
	C327.223969,412.827820 325.194122,412.869446 321.741394,409.379944 
	C294.929565,382.282410 267.909882,355.390564 240.954453,328.435120 
	C233.067947,320.548615 225.335449,312.498718 217.224411,304.850311 
	C213.616470,301.448151 213.863708,299.166321 217.377258,296.026886 
	C221.838989,292.040253 226.105957,287.789825 230.081223,283.319061 
	C233.272141,279.730438 235.485840,279.823151 238.902771,283.268616 
	C267.504395,312.109070 296.278137,340.778809 325.250000,369.750000 
z"/>
<path fill="#FC9F63" opacity="1.000000" stroke="none" 
	d="
M181.004944,331.967773 
	C181.447418,331.970490 181.889862,331.973206 182.664062,331.976654 
	C184.312241,333.470367 185.552307,335.039612 186.956375,336.445007 
	C216.989517,366.506622 247.042130,396.548767 277.087860,426.597809 
	C281.982208,431.492645 281.978241,431.502289 277.138275,436.352600 
	C273.136230,440.363190 269.132111,444.371704 265.118713,448.370941 
	C260.502625,452.970825 260.489441,452.974243 255.719070,448.204712 
	C225.786804,418.277832 195.860291,388.345245 165.923370,358.423065 
	C164.511749,357.012115 163.019196,355.682098 161.269714,354.154724 
	C160.971634,353.553101 160.968155,353.111206 161.260681,352.179871 
	C168.039429,345.116241 174.522186,338.541992 181.004944,331.967773 
z"/>
<path fill="#FC9F63" opacity="1.000000" stroke="none" 
	d="
M286.017242,226.098953 
	C286.455963,226.106354 286.894653,226.113739 287.661926,226.142227 
	C289.253082,227.868149 290.324310,229.763824 291.806427,231.249649 
	C321.934937,261.453308 352.111969,291.608551 382.275024,321.777740 
	C386.981079,326.484711 386.975922,326.498596 382.310425,331.179138 
	C378.310425,335.192017 374.071014,338.995209 370.362701,343.260834 
	C367.245361,346.846588 365.209503,346.922302 361.720520,343.400177 
	C331.932220,313.328888 301.948029,283.451599 271.990967,253.547791 
	C270.365845,251.925552 268.459442,250.585144 266.345947,249.056900 
	C266.007233,248.555893 266.006561,248.111511 266.340759,247.272766 
	C268.436493,245.418152 270.412262,244.149734 271.918457,242.462250 
	C276.712067,237.091736 281.330902,231.565216 286.017242,226.098953 
z"/>
<path fill="#FCA063" opacity="1.000000" stroke="none" 
	d="
M109.205864,407.137695 
	C108.904892,406.554474 108.907158,406.128998 108.894035,405.385468 
	C114.803810,399.003265 120.748077,392.957611 126.642799,386.864014 
	C128.480835,384.964020 130.166367,384.671814 132.159454,386.673737 
	C143.897751,398.464294 155.729126,410.163513 167.324295,422.092590 
	C168.170807,422.963470 168.123260,426.071869 167.261368,427.010315 
	C162.089203,432.641907 156.524078,437.910461 151.159546,443.368378 
	C148.558731,446.014465 146.814804,444.336029 144.928528,442.443298 
	C134.476013,431.955017 124.000916,421.489197 113.519035,411.030243 
	C112.226761,409.740845 110.847862,408.538239 109.205864,407.137695 
z"/>
<path fill="#FC9F63" opacity="1.000000" stroke="none" 
	d="
M338.863403,175.200256 
	C339.456207,174.902420 339.891266,174.908432 340.652252,174.904266 
	C350.059631,184.169601 359.096375,193.489532 368.244110,202.699188 
	C371.987061,206.467468 375.970123,209.997238 380.328705,214.090744 
	C373.419830,221.018265 367.173859,227.395187 360.729248,233.564636 
	C360.092285,234.174393 357.718933,234.044571 357.029602,233.366013 
	C344.457977,220.991241 332.020935,208.479797 319.149536,195.591110 
	C325.799194,188.760895 332.252411,182.132492 338.863403,175.200256 
z"/>
<path fill="#F9BB69" opacity="1.000000" stroke="none" 
	d="
M180.946686,331.631989 
	C174.522186,338.541992 168.039429,345.116241 161.259552,351.848358 
	C159.363007,350.889191 157.555099,349.981171 156.194748,348.624390 
	C125.892242,318.401886 95.685410,288.083252 65.311516,257.932861 
	C61.925335,254.571594 61.628681,252.365631 65.271973,249.110138 
	C70.107224,244.789536 74.591980,240.064499 79.078812,235.371262 
	C81.366867,232.977936 83.177437,232.619049 85.710381,235.160553 
	C116.862244,266.417664 148.086151,297.602905 179.268158,328.830048 
	C179.948853,329.511688 180.354492,330.468048 180.946686,331.631989 
z"/>
<path fill="#F9BB69" opacity="1.000000" stroke="none" 
	d="
M285.860413,225.795364 
	C281.330902,231.565216 276.712067,237.091736 271.918457,242.462250 
	C270.412262,244.149734 268.436493,245.418152 266.340393,246.939484 
	C253.166275,233.574570 240.327438,220.148575 227.094971,206.310928 
	C232.507462,200.928223 238.652161,194.655380 245.061188,188.665359 
	C245.794861,187.979675 248.590393,188.283798 249.445267,189.127121 
	C261.630890,201.147797 273.646759,213.340530 285.860413,225.795364 
z"/>
<path fill="#F9BB69" opacity="1.000000" stroke="none" 
	d="
M210.734406,177.744232 
	C202.607590,185.775406 204.299530,185.761963 196.508148,178.015564 
	C187.541809,169.100998 178.693207,160.066483 169.634369,151.247482 
	C167.139832,148.818970 167.046799,147.196411 169.619644,144.791275 
	C174.599670,140.135864 179.385880,135.264954 184.104309,130.341385 
	C186.409607,127.935860 188.236862,127.629982 190.734833,130.168701 
	C201.002625,140.603912 211.355179,150.957352 221.795166,161.220230 
	C224.068741,163.455215 223.711182,164.955643 221.602493,166.937576 
	C217.967484,170.354095 214.514587,173.964432 210.734406,177.744232 
z"/>
</svg>